<svg width="144" height="115" xmlns="http://www.w3.org/2000/svg" xmlns:xlink="http://www.w3.org/1999/xlink">
  <defs>
    <path id="a" d="M0 0h105v33H0z"/>
  </defs>
  <g fill="none" fill-rule="evenodd">
    <path d="M112.498 83.871c-2.136-2.5-2.25-3.685-.648-5.705.857-1.08 1.816-1.555 3.254-1.198 2.487.618 5.013 1.083 7.515 1.643.537.12.932.413 1.43-.255 4.489-6.014 8.437-12.307 10.616-19.543.15-.498.6-.995.12-1.742-2.397 3.63-6.215 4.258-10.065 4.718-3.112.371-6.256.637-9.38.265-1.849-.22-3.1.862-4.55 1.555-.419.2-.754.812-1.291.366-.415-.345-.161-.879.041-1.206.788-1.269.122-1.606-1.017-1.922-6.92-1.918-13.825-3.886-20.768-5.847-.487 7.259-2.478 14.206-4.99 21.03-1.423 2.963-3.216 5.76-4.084 8.97-2.008 5.125-5.507 9.132-9.646 12.676-.679.581-1.342.576-2.086.37-1.585-.438-2.173-1.701-1.812-3.73.275-1.55 1.437-1.667 2.664-1.657 1.312.012 2.624.084 3.936.116.362.009.82.066.88-.437.06-.5-.35-.582-.743-.592-2.127-.052-4.255-.098-6.382-.14-.182-.003-.402-.011-.54.079-1.161.757-1.26 4.658-.296 5.792 1.98 2.332 4.67 2.888 7.495 3.051 6.69.387 13.394-.396 20.088.16 1.558.128 3.13.096 4.69.222 5.419.439 10.297-.665 14.17-4.737.882-.888.015-1.314-.522-1.747-1.452-1.171-2.832-2.403-4.102-3.775-1-1.082-1.276-2.08-.289-3.262.223-.301.345-.648.456-.998.462-1.449 1.408-2.065 2.961-1.787.786.14 1.592.191 2.395.246.537-.141.941-.35.5-.979" fill="#FDFDFD"/>
    <g transform="translate(39)">
      <mask id="b" fill="#fff">
        <use xlink:href="#a"/>
      </mask>
      <path d="M82.402 30.903c6.053.35 12.062 1.172 18.09 1.794 1.108.114 2.218.205 3.328.297.552.045.975-.156 1.135-.749.162-.602-.13-.98-.618-1.237-1.435-.752-2.867-1.51-4.308-2.25-13.076-6.71-26.148-13.434-39.238-20.117-3.129-1.597-6.624-1.462-9.968-1.928C35.81 4.619 20.78 2.65 5.757.64 4.47.467 3.182.262 1.888.163 1.282.117.468-.366.108.585c-.38 1.007.31 1.484 1.01 1.985 1.317.945 2.589 1.958 3.88 2.943.892.771 1.74.793 2.638-.046.953-.89 2.083-1.011 3.3-.644C15.621 6.24 20.4 7.28 25.106 8.608c4.808 1.19 9.617 2.371 14.399 3.667 1.578.428 3.031.615 4.677-.08 1.895-.8 3.91-.52 5.643.798.68.517 1.161 1.196.874 2.144-.28.918-1.002 1.249-1.854 1.349a4.876 4.876 0 01-2.198-.236c-8.052-2.8-16.455-4.11-24.665-6.237-2.88-.746-5.81-1.251-8.706-1.926-.602-.14-1.23-.396-1.826-.177-.936.344-1.65.855-.468 1.83L26.2 20.49c1.776 2.114 4.222 3.32 6.315 5.004.564.454 1.23.542 1.915.63 7.77 1.005 15.573 1.706 23.36 2.548 4.16.45 8.326.988 12.549 1.016 2.968.02 5.979.477 8.941.974 1.044.175 2.106-.135 3.122.241" fill="#FE7D25" mask="url(#b)"/>
    </g>
    <path d="M97.27 53.876c.093.615-1.362 1.242-.22 1.688.645.253 1.934.466 2.271-.98.961-4.117 2.308-8.148 2.911-12.345.14-.974.208-1.952.699-2.838.392-2.107-.97-1.207-1.892-1.063a9.021 9.021 0 01-3.815-.018c-3.906-.437-7.825-.76-11.67-1.637-5.888-1.343-11.74-2.786-17.31-5.152-.52-.22-1.044-.428-1.541-.697-2.349-1.271-2.35-1.27-2.665 1.285-.498 4.733.231 9.5-.411 14.232-.178 1.308 1.444 1.375 1.881 2.297.174.368.274.787.61.944-.306-.332-.909-.241-1.322-.57-4.693-3.22-10.05-4.378-15.623-4.94-1.536-.154-1.344.316-.665 1.196 2.539.826 5.212 1.162 7.72 2.13 2.25.868 4.271 2.014 5.995 3.7 1.566 1.533 2.627 3.275 2.815 5.498-.487-.26-.393-.754-.507-1.144-.138-.471-.164-.975-.389-1.422-.35-.696-.826-1.385-1.712-1.084-.961.327-.717 1.155-.49 1.88.199.635.765 1.138.689 2.12-.774-.855-.929-1.888-1.633-2.543-.825-.911-2.072-1.31-2.853-2.277-.428-.363-.84-.761-1.483-.651-.416.221-.523.524-.252.925.847 1.914 2.516 3.192 3.816 4.756.754.907 1.553 1.786 2.219 2.752.674.978 1.388 1.545 2.652 1.044.433-.172 1.053-.357 1.358.175.296.516-.357.658-.58.981-.435.628-.79 1.713.41 1.559 2.533-.324 3.452 1.39 4.48 2.959.645.986 1.123 1.222 2.358.81 3.344-1.119 5.735.817 5.775 4.335.008.692-.838 1.771.438 2.123 1.595.44 1.97-.705 2.29-1.923.744-2.834 1.56-5.65 2.347-8.474.306-.824-.628-.926-.92-1.398-.556-.897-1.14-.552-1.318.369-.174.906-.23 1.838-.67 2.676-.264.502-.573 1.021-1.251.937-.692-.085-.84-.673-.928-1.23a6.935 6.935 0 01.009-2.21c.212-1.286-.15-1.941-1.728-1.393 3.14-1.626 3.778-1.539 6.136.797.49.486.804.577 1.029-.171.486-2.967 1.007-5.93 1.438-8.904.127-.876.495-.813 1.124-.57 1.805.7 3.605 1.418 5.44 2.034.54.18 1.462.917 1.721-.07.311-1.183-1.057-.31-1.59-1.002 1.25-1.186 2.657-2.262 4.22-3.019 1.341-.649 2.536.433 2.243 1.873-.108.529-.4 1.021-.608 1.53-.294.503-.737-.24-1.048.12" fill="#FDFDFD"/>
    <path d="M29.218 51.209c-1.687-1.898-4.103-2.698-6.185-4.002-.257-.16-.65-.16-.828.117-.204.316.12.54.32.76l1.093 1.2c.29.33.062.795.466 1.157a2.305 2.305 0 01-1.261-.372c-1.932-1.886-4.191-3.263-6.711-4.238-.408-.158-.858-.39-1.166.083-.242.372.1.75.314.979.67.715 1.42 1.354 2.04 2.19C14.536 47.415 11.597 46.2 8.444 45c-.086 1.072.77 1.404 1.008 2.036.44 1.073 1.5 1.358 2.325 1.984-1.366-1.07-2.975-1.56-4.64-1.907-1.808-.459-3.608-.949-5.427-1.357-.564-.127-1.403-.39-1.653.331-.255.736.399 1.223 1.067 1.504 2.286.96 4.576 1.91 6.868 2.854.277.114.596.144.723.569-1.441-.054-2.7-1.079-4.176-.682-.455.123-1.092-.012-1.098.71-.004.576.536.612.938.72.78.21 1.572.38 2.359.567 1.358.866 2.974.76 4.457 1.157-1.69-.197-3.37-.935-5.075-.08-.332 1.038.634.905 1.097 1.089 3.245 1.292 6.613 2.119 10.136 2.366-.128.75-.68.437-1.02.467-.742.064-1.495-.001-2.239.05-.952.064-2.179.323-2.23 1.248-.064 1.132 1.327.891 2.07.971 2.814.304 5.674.025 8.493.594-1.468.64-3.197.287-5.034 1.393 5.529 2.083 10.927 1.282 16.452 1.428-1.144.911-.686 1.314.319 1.607 2.444.712 5 .703 7.495 1.1-.005.64-.517.502-.807.648-.402.202-.84.417-.782.919.062.539.598.568 1.014.628 1.958.281 3.92.539 5.867.803.021.19.064.308.041.412-.138.62-1.391.747-.846 1.608.432.682 1.26.295 1.912.338.682.046 1.368.022 2.051.028 2.042-.065 4.07-.327 6.114-.364 2.719.643 5.118 2.066 7.739 3.261.167-1.31-.192-2.151-1.247-2.74-3.249-1.814-5.896-4.23-7.571-7.586-.694-.457-1.072-1.692-2.329-.595-.568.495-.451-.586-.765-.846a16.71 16.71 0 00-2.683-4.37c-.988-.51-1.674-.473-1.627.881.027.786-.114 1.59.252 2.352-.316-.44-.716-.767-1.136-1.075-1.005-1.588-2.496-2.714-3.88-3.932-.437-.385-.98-1.008-1.62-.637-.566.329-.123 1.028-.153 1.56-.019.336.032.675.07 1.333-2.727-2.85-5.172-5.54-8.032-7.804-.975-.77-1.946-1.535-3.063-2.103-.627-.319-1.103-.447-.982.537.628 1.635 1.066 3.378 2.288 4.196-.504-.498-1.077-1.572-2.265-1.962" fill="#FF7D25"/>
    <path d="M42.872 86.81c-1.878 5.839-3.796 11.662-5.301 17.61-.7 2.768-.98 5.593-1.523 8.38-.197 1.006.218 1.191 1.115 1.179 2.78-.04 5.56-.025 8.339-.032.593-1.407.682-2.829.25-4.283.49 1.124.046 2.552 1.014 3.552.267.242.528.69.8.695 2.644.056 5.302.178 7.932-.02 1.26-.095 1.586-1.427 1.485-2.507-.876-9.296-1.037-18.63-1.552-27.944-.103-1.864-.511-3.751.131-5.606.505-1.226-.223-2.026-1.011-2.81-.954-.741-.449-1.596-.188-2.419.298-.94.871-2.28-.304-2.573-1.084-.27-1.14 1.21-1.377 2.092-.51 1.909-.493 3.883-.657 5.823-.64 7.56-.63 15.114.189 22.679.33 3.05.602 6.12.73 8.157-.904-5.771-1.684-12.62-1.652-19.47.023-5.084-.04-10.23.887-15.29.08-.436.13-.874.195-1.311.082-.555.282-1.317-.39-1.487-.766-.192-.727.68-.962 1.148l-.367 1.495c-1.956 7.13-3.23 14.337-2.702 21.117-.005-1.742-.441-4.115-.03-6.528.163-.958.461-2.51-.54-2.69-1.16-.21-1.017 1.404-1.368 2.267-.167.411-.274.839-.41 1.254-.177 1.424-.742 2.75-.95 3.543.265-.86.387-2.373.879-3.802a17.18 17.18 0 00.974-3.618c.116-.775-.177-1.398-1.027-.727-.879.693-2.531.509-2.61 2.127" fill="#FD7D26"/>
    <path d="M105.288 36.15c.908-.385.943-1.192 1.003-2.007.09-1.226-.013-2.478.457-3.657.648-1.32-.021-1.828-1.238-1.972-3.593-.426-7.195-.77-10.795-1.14-4.523-.464-9.051-.883-13.573-1.369-2.788-.3-5.584-.526-8.37-.845-.854-.098-1.533-.337-2.184-.895-1.234-1.058-2.642-1.885-3.974-2.815-.451-.316-.92-.715-1.5-.21-.287 1.936-1.8 3.714-.744 5.82.708 1.405 1.961 2.18 3.27 2.943 4.725 2.755 10.055 3.694 15.22 5.134 1.983.553 4.013.915 5.996 1.489 1.872.542 3.771.391 5.73.19a89.774 89.774 0 018.894-.462c.6-.002 1.248.218 1.808-.204" fill="#FF7D25"/>
    <path d="M76.538 113.938c3.331.015 6.663.003 9.993.061 1.026.018 1.55-.213 1.459-1.374a658.457 658.457 0 01-.704-10.52c-.057-.927-.52-1.144-1.387-1.1-3.007.154-6.016.24-9.025.351-.608.591-.592 1.357-.62 2.123-.111 3.034.251 6.079-.232 9.104-.082.515.06 1.012.516 1.355" fill="#FC7D25"/>
    <path d="M94.396 113.953l4.235-.056c1.023-1.107.497-2.497.632-3.767.086-.803-.215-1.592-.133-2.16.568 1.67-.469 3.79.755 5.609 1.054.728 2.227.274 3.345.353.643.046.785-.49.866-1 .556-3.47 1.229-6.93.729-10.487-.1-.708-.352-1.176-.969-1.445-2.897 0-5.66.82-8.434 1.543-.41.107-.673.568-.745 1.016-.522 3.237-.59 6.512-.677 9.783-.006.247.209.445.396.611" fill="#FB7D26"/>
    <path d="M76.323 102.085c-1.848-.224-3.7-.43-5.486-.963-.993-.298-1.562-.084-1.665 1.018-.344 3.656-.415 7.338-1.14 10.96-.198.984.584.878 1.215.882 2.251.013 4.503.013 6.754.018 1.056-.459.853-1.453.9-2.21.17-2.748.075-5.504.055-8.256-.003-.556-.164-1.065-.633-1.449" fill="#FA7C26"/>
    <path d="M49.651 9.508c-.95-1.81.369-1.512 1.24-1.333 3.448.707 6.89 1.46 10.316 2.272 6.733 1.597 13.448 3.272 20.184 4.853 1.807.424 3.438 1.44 5.325 1.57 1.411.098 2.643-.15 3.145-1.715.529-1.645-.543-2.61-1.695-3.239-2.1-1.148-4.334-1.59-6.483-.092-.634.442-1.137.258-1.733.106-4.792-1.225-9.586-2.44-14.382-3.647-.596-.15-1.208-.227-1.813-.337-.585-.13-1.197-.43-1.645.287.213.855.927.918 1.58 1.092 4.88 1.309 9.796 2.458 14.698 3.667.426.105.81.298 1.228.4-6.219-1.677-12.513-3.03-18.728-4.719-3.212-.873-6.526-1.313-9.671-2.472a3.06 3.06 0 00-1.824-.111c-1.685.587-2.648 1.845-2.92 3.624-.424 2.763-.867 5.542.135 8.286.78-.798.412-1.817.397-2.72-.03-1.854.068-3.687.497-5.483.109-.455.096-1.1.643-1.29.726-.254.593.658.979.88.151.086.35.083.527.121" fill="#2E0501"/>
    <path d="M112.754 93.93c.847.438 1.938.675 2.478 1.365.64.818-1.197 1.107-.708 2.162-.288-.058-.404-.074-.516-.106-.587-.168-.827-1.688-1.605-.713-.791.992.588 1.08 1.018 1.407 1.78 1.35 6.59 1.246 8.315-.17 1.086-.89 1.604-1.964 1.023-3.55-.793-2.162-1.986-3.826-3.957-4.983-1.6-.939-3.092-2.071-4.632-3.118-.53-.422-.791-.224-.69.394.105.631.63 1.023 1.021 1.48.701.817 1.324 1.767.812 2.817-.526 1.083-1.686.61-2.598.65-.81.035-1.464-.471-2.186-.746-.472-.179-1.065-.607-1.425.024-.323.564.176 1.032.557 1.414.866.87 1.898 1.437 3.093 1.673" fill="#FCFCFC"/>
    <path d="M54.578 76.729l.929 2.23c.854 1.542 1.738 3.071 2.552 4.636.45.866 1.228 1.159 2.07 1.352.978.223 1.79-.28 2.116-1.064.391-.94-.715-.921-1.218-1.215-1.211-.709-2.47-1.336-3.71-1.998-.352-.187-.318-.474-.196-.78a2.32 2.32 0 00.215-.495c.11-.33-.237-.667.025-.99.271.24.523.505.873.64 1.228 1.56 3.255 2.72 6.518 3.691-.268-1.067-.758-2.102.072-3.075.78-.912 1.863-1.019 3.176-1.118l-3.92-3.455c-2.435-.65-3.536.9-4.58 2.97.328-1.437.888-2.353 1.962-2.942.397-.217.924-.438.683-1.087-1.016-.514-2.048-1-3.043-1.55-1.101-.609-2.169-.67-3.252.005-1.95 1.111-2.332 2.385-1.272 4.245" fill="#FBFAFA"/>
    <path d="M125.246 83.705a30.138 30.138 0 00-4.948-4.54c-.555-.338-.84-.144-.826.466.011.446.286.827.435 1.24.43 1.193.49 2.388-.438 3.363-.936.985-2.102.587-3.2.288-.604-.165-1.133-.561-1.779-.624a.747.747 0 00-.49.202c1.207 2.386 3.999 2.929 5.643 4.817.49.564 1.066 1.095 1.699 1.484.74.456 1.111 1.767 1.882 1.581 1.334-.32 2.826-.73 3.5-2.228.436-.804.242-1.679.172-2.499-.071-.823-.513-.635-.873-.094-.007 1.155-.988 1.4-1.762 2.175-.377-1.396 1.062-1.669 1.019-2.59.288-1.017.33-2.031-.034-3.041" fill="#FBFBFB"/>
    <path d="M54.22 76.52c-.27-1.657-.163-3.199 1.261-4.34-.768.052-1.076-.322-.994-1.093.112-1.058.964-.625 1.513-.803-2.05-.744-4.003.189-6 .37.298.023.6.02.894.074.546.101 1.377-.354 1.574.418.22.864-.74.518-1.128.788-.531.369-.607.867-.5 1.449.394-.19.198-.9.893-.93C49.812 85.895 50.34 99.256 52.776 113c.71-1.14.476-1.972.413-2.757-.798-9.904-1.728-19.804-.932-29.76.214-2.677.455-5.352.677-8.028.041-.504.04-1.023.596-1.253.086-.035.265.015.325.09.38.469.141.937-.033 1.403-.492 1.314-1.305 2.61-.184 4.005.357.445.452.093.582-.18" fill="#280301"/>
    <path d="M44.702 42.841l.804-2.209c.733.208.453.725.504 1.092.088.623.066 1.295 1.02 1.276 1.117-.024.993-.818.934-1.47-.199-2.196-.503-4.385-.66-6.583-.18-2.507-.322-5.021-.325-7.532-.002-1.116-.577-1.314-1.524-1.402-1.002-.094-1.522.338-1.595 1.207-.307 3.665-.585 7.332-.855 10.999-.021.293.024.824.155.859 2.13.563 1.027 2.284 1.542 3.763" fill="#F77E2A"/>
    <path d="M70.86 69.063c-.724-4.375-5.958-6.631-9.052-3.824-.747.679-1.32 1.904-.099 2.697.892.579 1.232 2.305 2.748 1.707.376-.148.414.539.514.858.342 1.086.616 2.2.916 3.303.74.549.908-.176 1.116-.679.634-1.53 1.474-2.367 3.028-1.395.63.394 1.01.146.954-.716-.042-.65.122-1.318-.126-1.951" fill="#FBFBFB"/>
    <path d="M65.404 21.643c1.862.857 3.423 2.202 5.045 3.42.89.667 1.725 1.049 2.812 1.158 10.652 1.07 21.297 2.211 31.952 3.254 1.14.111 1.297.61 1.214 1.525.51-2.114 1.974-1.904 3.605-1.708 3.644.44 7.269 1.17 10.968.973-4.161-.877-8.406-1.024-12.613-1.488-11.825-1.302-23.664-2.468-35.48-3.844-1.85-.215-3.137-2.04-4.803-2.929-1.083-.579-1.893-1.62-3.104-2.004.153.543.784.963.404 1.643" fill="#2F0501"/>
    <path d="M106 36.525c-3.612.11-7.241.057-10.833.375-3.939.348-7.516-.95-11.175-1.79-5.132-1.179-10.36-2.145-15.077-4.593-1.383-.717-2.589-1.607-3.802-2.517.572 1.372-.427 2.743-.006 4.115l.372-1.534c10.432 4.182 21.06 7.536 32.627 7.416-.833-.882-2.04-.064-3.115-.63 3.2-.152 6.244-.29 9.288-.446.593-.03 1.27.195 1.721-.396" fill="#1D0A07"/>
    <path d="M112.518 93.16c-1.19-.978-2.786-1.482-3.602-2.966 1.423.604 2.824 1.192 4.378 1.273.965.05 1.948.051 2.456-.904.513-.964.172-1.917-.441-2.724-.477-.628-1.112-1.141-1.643-1.734-.38-.422.046-.443.324-.518-1.705-.198-.297-2.12-1.517-2.587-.01.427-.335.539-.675.634-.206.944-1.112.153-1.526.579-1.48.838-1.926 2.373-2.633 3.748-.403-.26-.324-.785-.69-1.028-.808.032-.543.514-.554.914-.162-.47.089-1.21-.599-1.53-1.151 1.178-1.012 2.281.148 3.384 1.536 1.46 2.932 3.08 4.798 4.161.595.345.591.656.34 1.138.657-.07.724-.532.7-1.03-.027-.517.25-.746.736-.81" fill="#1D1D1D"/>
    <path d="M60.959 54.482c.928.766.883 2.039 1.512 2.958.21.306.455.681.883.522.41-.152.44-.573.363-.958-.16-.806-.39-1.585-.941-2.227-.337-.392-.617-.817-.319-1.353.157-.281.408-.51.752-.445.68.13.782.715.913 1.272.201.854.428 1.703.622 2.56.097.433.137.977.724.88.7-.117.538-.689.456-1.2-.705-4.4-3.537-7.126-7.257-8.945C55.646 46.068 52.445 44.984 49 45c.404.785.893 1.465 1.863 1.559 1.064-.244 1.681.433 2.298 1.127.87.978 1.762 1.93 3.035 2.388.419-.113.526-.434.538-.819-.025-.25-.118-.478-.335-.88 1.813.543 3.174 1.53 4.462 2.657.427.373.65.717.182 1.23-.642.702-.475 1.463-.084 2.22" fill="#111"/>
    <path d="M46.202 90.836l1.224-3.732c.15 3.502-.253 7.02 1.04 10.896.267-6.474.475-12.47 1.66-18.383.308-1.536.584-3.078.874-4.617-1.152 1.796-1.086 3.908-1.694 5.843-.533 1.695-1.628 2.925-3.63 3.153-.867-.04-.76 1.123-1.573 1.15-.388.9-1.286 1.617-1.07 2.73.524-.285.355-1.419 1.552-.956.842.326 1.07-.767 1.893-1.248l-1.143 4.366c-.288.64-.2 1.254-.028 1.86.973-.009.383-.879.895-1.062" fill="#2C0A03"/>
    <path d="M70.135 87.476c.223.46-.733 1.847.55 1.911 1.477.074 3.196 1.623 4.529-.506 1.087-1.736 1.123-2.817-.375-4.71-.653-.825-1.166-2.618-2.228-2.068-1.247.644-2.405 2-2.474 3.772-.017.442-.002.885-.002 1.601" fill="#F07A28"/>
    <path d="M110.018 114.744c1.863.667 2.916.037 3.534-1.969.761-2.47 1.742-4.865 2.27-7.414.178-.854.265-1.717.057-2.579-.14-.58-.593-.723-1.084-.776-.447-.048-.629.197-.644.648-.137 3.858-2.131 7.019-3.536 10.403-.227.548-.715 1.006-.597 1.687" fill="#EA7C2E"/>
    <path d="M84.913 62.123c-.922.569-.779-.333-.99-.614-1.506-1.997-6.206-2.02-7.694-.02-.196.265-.374.523-.05.794.25.21.492.086.722-.065.49-.319.987-.626 1.76-.691-.102 1.318-.662 2.538-.304 3.79.224.784.507 1.567 1.588 1.673 1.003.1 1.42-.58 1.8-1.24.666-1.16.927-2.391.713-3.809 1.1.334.95 1.654 2.064 1.784.67-.43.462-1.03.391-1.602" fill="#121212"/>
    <path d="M46.379 17.755c.275-2.46-.135-4.934.279-7.401.305-1.815 1.184-3.123 3.098-3.828.255-.261.3-.557.182-.88-2.198-1.266-4-.638-4.565 1.595a6.292 6.292 0 01-.63 1.558c-.713 2.47-.788 4.989-.726 7.518.036 1.464.737 2.062 2.362 1.438" fill="#F18030"/>
    <path d="M44.533 9c.266-.489.592-.955.787-1.47.811-2.133 1.58-2.48 3.895-1.688 2.842 1.324 5.934 1.744 8.956 2.39 1.368.293 2.703 1.3 4.197.405.422-.594 1.09-.288 1.632-.44-5.253-1.378-10.5-2.779-15.763-4.115a2.682 2.682 0 00-2.78.962c-.763.988-1.519.93-2.457.483.055.113.09.304.169.325 1.81.474 1.81 1.713 1.364 3.148" fill="#4A1003"/>
    <path d="M91.408 101.245c-.53.612-.402 1.34-.375 2.032.118 3.073.324 6.143.372 9.216.02 1.367.684 1.663 1.937 1.44.625-.406.48-.99.457-1.57-.103-2.694-.276-5.393.177-8.076.111-.663-.194-1.26-.269-1.89-.173-1.452-1.02-1.648-2.299-1.152" fill="#DF7B36"/>
    <path d="M91 101.862c1.429-.183 1.948.394 1.734 1.882-.488 3.403-.344 6.822-.051 10.236l.915.02c.227-3.361.451-6.723.687-10.084.03-.444.166-.863.678-.962 2.678-.52 5.358-1.032 8.037-1.547-.29-.424-.759-.464-1.149-.357-2.502.688-5.16.716-7.564 1.753-.768.331-.923.401-1.19-.488-.354-1.18-1.215-1.157-2.097-.453" fill="#300901"/>
    <path d="M43 20.763c.405.995.997 2.018.21 3.19-.182.271.367.497.657.661 1.347.766 3.666.347 4.711-.863.175-.201.351-.437.416-.687.037-.14-.11-.432-.249-.502-1.608-.81-1.13-3.986-3.907-3.514-1.03.174-1.594.643-1.838 1.715" fill="#F27E2C"/>
    <path d="M118.12 79.155l-.667-.11c-1.591-.293-1.78.906-2.156 1.846-.444 1.105-.495 2.226.592 3.039 1.041.778 2.25 1.42 3.606.856 1.112-.462 1.598-1.457 1.49-2.594-.155-1.648-1.037-2.756-2.864-3.037" fill="#F8F8F8"/>
    <path d="M78.827 75c.537-4.773-.113-6.154-2.847-5.987-3.268.2-3.04.342-2.926 5.586 1.944-1.798 3.863-2.496 5.773.401" fill="#F9F9F9"/>
    <path d="M78.242 84c1.642-2.81 2.787-5.863 3.758-9-.705.338-.826 1.108-1.18 1.728-.376.656-.423-.087-.564-.319-.952.533-.88 2.303-2.327 2.236-.158.366-.475.452-.798.528-.104.589.406.81.664 1.262-1.517-.552-2.862-1.353-4.226-2.11-.48-.267-.927-.83-1.56-.35-.016.842-.095 1.71.733 2.23 1.43.375 2.658 1.31 4.078 1.72.753.219.692 1.046.966 1.62l.456.455" fill="#261A17"/>
    <path d="M64.036 112.487c-.079.967-.096 1.515.671 1.513.631-.002.628-.501.687-.949.519-3.913 1.05-7.825 1.577-11.738.08-.603.042-1.14-.754-1.29-.695-.13-.732.312-.787.773-.479 4.043-.963 8.086-1.394 11.691" fill="#D67C3E"/>
    <path d="M117.636 78.717c.873.684 1.865 1.273 2.048 2.527.162 1.105.171 2.23-1.096 2.648-1.058.35-3.24-.833-3.272-1.781-.047-1.421.105-2.866 1.72-3.5-.56-.403-1.176-.629-1.87-.61-1.239 1.827-1.652 3.72-.439 5.74.8.335 1.574.77 2.403.98 1.121.283 2.407.642 3.212-.566.79-1.185.871-2.519.23-3.881-.16-.34-1.22-.861.001-1.259-.94-.494-1.952-.26-2.937-.298" fill="#2D2D2D"/>
    <path d="M67.384 79.007c-.897.29-2.57.046-2.367 1.962.149 1.415.742 2.9 2.448 3.029 1.046.079 2.61-1.902 2.532-3.023-.09-1.276-1.034-2.059-2.613-1.968" fill="#EFF0F0"/>
    <path d="M71.531 70v2.382c-1.054-.614-1.975-1.25-3.155-.666-1.12.555-1.78 1.341-1.875 2.543-.004.058-.325.093-.499.139-.06 1.2 1.293 1.601 1.646 2.568 1.33-.112 2.876.504 3.8-.99l-.001-.84c-.555-.387-1.104-.085-1.652.02-.536.102-1.052.146-1.232-.49-.125-.44-.01-.856.416-1.11.565-.335.967.002 1.322.37.386.401.743.826 1.139 1.219.773-1.703.69-3.42.091-5.145" fill="#2F2F2F"/>
    <path d="M75.401 102.022c-.015 3.646-.02 7.292-.06 10.937-.005.348-.223.694-.341 1.041l1.578-.055c.521-3.974.355-7.962.422-11.945l-1.599.022" fill="#3E0903"/>
    <path d="M65.085 86.841c-.023.463-.149.95-.043 1.383.208.852.727 1.662 1.62 1.765 1.174.135.803-.972.94-1.588.172-.77.143-1.584.323-2.35.346-1.468-.555-1.934-1.701-2.04-1.519-.142-.847 1.154-1.07 1.844-.098.305-.049.656-.07.986" fill="#E67C34"/>
    <path d="M71.049 78.782C73.668 79.825 76.018 81.47 79 82c-.065-1.293-1.413-1.26-1.861-1.996-1.651-.867-3.318-1.71-4.945-2.612-.71-.393-1.354-.665-1.955.066-.803.978.659.818.81 1.324" fill="#D47E43"/>
    <path d="M101 56c2.114-1.438 3.565-3.326 5.604-3.93.17-.051.405-.413.396-.615-.022-.49-.39-.468-.682-.446-1.375.106-2.803.203-4.024.939-1.131.681-.902 2.364-1.294 4.052" fill="#EBEBEB"/>
    <path d="M78.627 84.291c.673-1.13.453-1.854-.802-2.24-1.398-.432-2.76-.985-4.006-1.81-.438-.29-.824-.465-.819.365 1.305 1.265 2.729 2.419 3.875 3.83.842 1.038 1.211.434 1.752-.145" fill="#E7E6E5"/>
    <path d="M79.322 78.576c1.071.724 1.81.608 2.035-1.032.073-.534.292-1.04.444-1.56-.194-.641.848-1.724-.518-1.954-1.028-.174-1.477.424-1.434 1.535.04 1.071-1.498 1.74-.527 3.01" fill="#E2E2E2"/>
    <path d="M44 84.928c1.046.394.896-.938 1.456-1.245.811-1.6 1.842-3.072 2.322-4.868-.013-.956.704-2.031-.371-2.815-.813 3.128-2.273 5.951-3.407 8.928" fill="#A26B4A"/>
    <path d="M114.458 84c-1.043-2.073.032-4.005.542-5.974-2.604-.254-3.816 1.386-2.402 3.25.658.868 1.22 1.79 1.825 2.687l.035.037z" fill="#E7E7E7"/>
    <path d="M62.122 74.004c-1.25.952-2.74 1.693-2.98 3.536-.068.516-.397 1.232.264 1.432.609.184.639-.576.743-1.003.506-2.073 2.059-2.647 3.851-2.902-.566-.467-1.028-1.126-1.878-1.063" fill="#444445"/>
    <path d="M56.944 49.842c-1.48-1.172-2.301-3.13-4.26-3.743-.674-.211-.844-.111-.536.569 1.998 1.58 3.833 3.338 5.45 5.332.071-.28.075-.595.38-.748.145-.852-.472-1.11-1.034-1.41" fill="#DCDCDC"/>
    <path d="M73 74.82c1.752.296 3.33.526 5 1.18-.122-1.494-.627-2.599-2.044-2.934-1.452-.342-2.159.704-2.956 1.754" fill="#E3E3E3"/>
    <path d="M98.977 113.686c.048-1.915.085-3.829-.564-5.686-.595 1.937-.29 4.001-.413 6l.977-.314" fill="#420C01"/>
    <path d="M7.005 52.412c2.008-.128 3.97.59 5.995.588-1.644-1.552-3.56-1.628-5.419-2 .554 1.057-.667.718-.576 1.412" fill="#6F2204"/>
    <path d="M29.082 50.415C30.164 51.824 31.442 53.033 33 54c-1.417-1.948-2.84-3.876-3.943-6-.336.809.97 1.6.025 2.415" fill="#A43F05"/>
    <path d="M7 46.102c1.951.645 3.522 2.21 6 2.898-1.197-1.644-2.587-2.137-3.725-2.98-.734.793-1.53-.352-2.275.082" fill="#752304"/>
    <path d="M47 59.762c.292 1.034 1.324 1.61 2.4 2.238-.36-1.01-.79-2.006-1.059-3.03-.268-1.025.182-1.617 1.659-1.287-1.185-1.048-1.91-.901-2.205.516-.117.56.463 1.367-.795 1.563" fill="#441405"/>
    <path d="M104.826 54c-.718.505-1.445.991-2.151 1.522-.329.247-.967.473-.523 1.107.29.414.912.558 1.305.029.555-.745 1.033-1.577 1.543-2.372l-.174-.286" fill="#A7A7A7"/>
    <path d="M47 113.294c.008-1.38-.161-2.714-.774-4.294-.437 1.871.019 3.464-.226 4.999.473.045.313-1.184 1-.705" fill="#5C1E08"/>
    <path d="M71 75c-1.026.725-2.083 1.186-3.258.563-.716-.38-.822.054-.697.805C69.17 77.542 70.518 77.076 71 75" fill="#C2C2C2"/>
    <path d="M59 78.992c-.397-.777-.651-2.292-1.485-1.94-1.306.553.292 1.478.233 2.302-.015.214.007.43.012.646.656.001.725-.813 1.24-1.008" fill="#02101B"/>
    <path d="M52.028 62c-.129.713.199 1.234.78 2 .443-2.403 1.387-.873 2.192-.579-.483-.906-.923-1.853-2.2-.953-.426.301-.433-.438-.772-.468" fill="#AE5E2B"/>
    <path d="M75 77c.341.689.96.993 1.766 1 .08 0 .27-.27.228-.336C76.56 77 75.678 77.238 75 77" fill="#838284"/>
    <path d="M23 49.817c.444.763 1.178.972 2 1.183l-1.292-2c-.057.479-.28.767-.708.817" fill="#5C240D"/>
    <path d="M97.094 53.785c.313.055.675.51.906-.1-.04-.032-.085-.061-.122-.097-.495-.475.404-1.65-.5-1.585-.734.053-.148 1.16-.284 1.782" fill="#C5C5C5"/>
    <path d="M65 49.307L68 51c-.135-1.195-1.174-1.589-2.183-2-.136.282-.493.272-.817.307" fill="#3A3A3A"/>
    <path d="M102 38.42c.598.44 2.52-.74 2.164.868l.699.712c.253-.732.205-1.385-.564-1.753-.685-.327-1.61-.386-2.299.172" fill="#1D0A07"/>
    <path d="M127.035 87.795c.26-.212.513-.355.627.15.156.692-.023 1.371-.086 2.055.701-.77.337-1.686.27-2.55-.02-.253-.205-.531-.5-.428-.325.114-.4.42-.311.773" fill="#333"/>
    <path d="M47.007 76.73c.959.678.186 1.527.495 2.27.886-.77.293-1.66.42-2.49.03-.2.178-.632-.516-.477-.43.096-.417.423-.4.697" fill="#2C0A03"/>
    <path d="M125 83c.438.997.14 2 .051 3 1.244-1.009 1.304-2.01-.051-3" fill="#333"/>
    <path d="M106 87.223l.476 1.777c.362-.332.105-.919.565-1.132 1.132-.795 1.772-2.206 3.34-2.453.412-.496 1.776.695 1.604-.833-3.876-1.159-4.815-.738-5.985 2.641" fill="#000"/>
    <path d="M82.956 48.258c-2.486-.81-4.782.353-4.956 2.545.729-.514 1.43-1.043 2.163-1.505.206-.13.531-.249.76.034.276.341-.085.517-.175.774-.34.97-.744 1.906-.88 2.966-.1.788.08 1.26.707 1.656.617.39 1.146.364 1.67-.099 1.153-1.016 1.609-2.425 1.738-4.008.08-1.02-.093-1.9-1.027-2.363" fill="#080808"/>
    <path d="M61.432 54c-.461-1.192.263-1.842 1.568-2.298-2.102-1.714-4.125-3.116-7-3.702l1.059 1.34c.241 1.082 1.28 1.72 1.803 2.645.423 1.122 1.78 1.273 2.57 2.015" fill="#EDEDED"/>
    <path d="M76 52.414c.311 1.671 1.028 2.692 2.004 3.474.367.294.643-.048.864-.366.228-.327.145-.642-.128-.85-.752-.573-1.12-1.512-1.668-2.28-.179-.25-.414-.5-.739-.343-.234.113-.337.345-.333.365" fill="#2A2A2A"/>
    <path d="M83 48c.812.57.442 1.705 1.164 2.319.095.074.186.155.287.222.56.371.263 1.823 1.21 1.374.732-.348.091-1.414-.18-2.107C85.059 48.724 84.235 48.073 83 48" fill="#080808"/>
    <path d="M83.383 55c-.426.384-1.012.714-1.324 1.259-.232.403.275.713.626.738.704.05 1.144-.45 1.302-1.199.075-.356-.181-.65-.604-.798" fill="#373737"/>
    <path d="M59 52c.025-1.397-1.042-2.042-1.655-3l-.345.79c.057.735.829.866 1.013 1.495L59 52" fill="#393939"/>
    <path d="M77.032 66.813c.244.521.534 1.11 1.317 1.182.558.052.744-.33.609-.748-.192-.592-.473-1.215-1.28-1.246-.445-.017-.787.251-.646.812" fill="#232323"/>
    <path d="M46 90.798l-.662.807L45.262 90 44 95.837l.486.163c.815-1.6 1.207-3.382 1.514-5.202" fill="#913609"/>
    <path d="M62.982 7.975c-3.702-.548-7.254-1.825-10.91-2.598-.681-.144-1.368-.252-2.053-.377L50 5.863c5.486 1.417 10.968 2.854 16.46 4.246 5.131 1.3 10.273 2.553 15.41 3.828.303.075.607.198 1.13-.422-6.679-2.294-13.455-3.5-20.018-5.54" fill="#D7844E"/>
    <path d="M87.867 15.956c1.225.096 1.864.092 2.083-.614.214-.694-.296-1.104-.828-1.388-1.238-.659-2.541-1.15-3.995-.877-.49.091-1.102.09-1.126.845-.019.598.204 1.009.8 1.18 1.209.347 2.424.676 3.066.854" fill="#EB7E34"/>
    <path d="M112.17 91c.789-.16 1.788.358 1.83-.824.044-1.301-2.475-4.115-3.735-4.176-.51-.024-2.502 2.477-2.242 3.089.757 1.773 2.698 1.543 4.146 1.911" fill="#F8F8F8"/>
    <path d="M110 85.038c-1.761-.287-2.456 1.1-2.985 2.746-.063.893.042 1.695.896 2.216.201-1.981 1.243-3.409 2.089-4.962" fill="#ECECEC"/>
    <path d="M70.98 73.364c.154-.958-.614-1.406-1.026-2.029-.337-.51-.855-.363-1.301-.049-.7.494-.716 1.222-.596 1.999.109.703.577.793 1.088.667.624-.154 1.228-.394 1.84-.596l-.005.008" fill="#EDEDED"/>
  </g>
</svg>