<svg id="Layer_1" data-name="Layer 1" xmlns="http://www.w3.org/2000/svg" viewBox="0 0 160.71 160.71"><defs><style>.cls-1{fill:#fff;}</style></defs><path class="cls-1" d="M80.35,0a80.36,80.36,0,1,0,80.36,80.35A80.36,80.36,0,0,0,80.35,0Zm0,149.76a69.41,69.41,0,1,1,69.41-69.41A69.41,69.41,0,0,1,80.35,149.76Z"/><circle class="cls-1" cx="80.35" cy="120.49" r="12.16"/><path class="cls-1" d="M91.39,31.94c-.15-3.19-1.28-4.53-4.45-4.41-2.19.08-4.39.06-6.59,0s-4.39,0-6.58,0c-3.18-.12-4.3,1.22-4.45,4.41-.64,13.13,1.56,26,3.37,38.89.79,5.66,1.6,11.31,2.39,17C75.55,91.17,78,91,80.35,91s4.81.18,5.28-3.19c.79-5.66,1.6-11.31,2.39-17C89.83,57.93,92,45.07,91.39,31.94Z"/></svg>