<svg id="Layer_1" data-name="Layer 1" xmlns="http://www.w3.org/2000/svg" viewBox="0 0 160.71 160.71"><defs><style>.cls-1{fill:#fff;}</style></defs><path class="cls-1" d="M108.84,88.55,94,79.17l14.81-9.37a4.86,4.86,0,0,0,1.51-6.71L107.73,59a4.86,4.86,0,0,0-6.7-1.51L87.67,65.89V50.08a4.87,4.87,0,0,0-4.86-4.86H77.9A4.87,4.87,0,0,0,73,50.08V65.89L59.68,57.44A4.86,4.86,0,0,0,53,59l-2.62,4.14a4.86,4.86,0,0,0,1.51,6.71l14.81,9.37L51.87,88.55a4.85,4.85,0,0,0-1.51,6.7L53,99.4a4.85,4.85,0,0,0,6.7,1.5L73,92.45v15.81a4.87,4.87,0,0,0,4.86,4.86h4.91a4.87,4.87,0,0,0,4.86-4.86V92.45L101,100.9a4.85,4.85,0,0,0,6.7-1.5l2.62-4.15A4.85,4.85,0,0,0,108.84,88.55Z"/><path class="cls-1" d="M80.35,0a80.36,80.36,0,1,0,80.36,80.35A80.36,80.36,0,0,0,80.35,0Zm0,149.76a69.41,69.41,0,1,1,69.41-69.41A69.41,69.41,0,0,1,80.35,149.76Z"/></svg>