<?xml version="1.0" encoding="UTF-8"?>
<svg width="23px" height="15px" viewBox="0 0 23 15" version="1.1" xmlns="http://www.w3.org/2000/svg" xmlns:xlink="http://www.w3.org/1999/xlink">
    <title>menu.collapse</title>
    <defs>
        <polygon id="path-1" points="0 5.68434189e-14 23 5.68434189e-14 23 15 0 15"></polygon>
    </defs>
    <g id="Page" stroke="none" stroke-width="1" fill="none" fill-rule="evenodd">
        <g id="Menu-Open" transform="translate(-24.000000, -27.000000)">
            <g id="menu.collapse" transform="translate(35.500000, 34.500000) scale(-1, 1) translate(-35.500000, -34.500000) translate(24.000000, 27.000000)">
                <mask id="mask-2" fill="white">
                    <use xlink:href="#path-1"></use>
                </mask>
                <g id="Clip-2"></g>
                <path d="M22.7131382,6.76630996 L16.2662701,0.288231881 C15.8838125,-0.0960772937 15.2637361,-0.0960772937 14.8812784,0.288231881 C14.4988578,0.672541056 14.4988578,1.29561934 14.8812784,1.67992851 L19.7316581,6.55378945 L0.979339109,6.55378945 C0.438444239,6.55378945 0,6.99435624 0,7.53786964 C0,8.08130858 0.438444239,8.52191261 0.979339109,8.52191261 L19.65633,8.52191261 L14.8812784,13.3200808 C14.4988578,13.70439 14.4988578,14.3274683 14.8812784,14.7117402 C15.2637361,15.0960866 15.8838125,15.0960866 16.2662701,14.7117402 L22.7131382,8.23369935 C22.7245875,8.22223187 22.7357033,8.21042932 22.7465227,8.19840337 C22.751636,8.19278133 22.7564158,8.1869359 22.7613438,8.18123939 C22.7668276,8.17483548 22.7724225,8.16850603 22.7777581,8.16199043 C22.7839088,8.15450678 22.789689,8.14687421 22.7955804,8.13924165 C22.7993968,8.13428978 22.8032874,8.12941239 22.8070297,8.12442329 C22.8132916,8.11593438 22.81922,8.10733378 22.8251855,8.09869595 C22.8282609,8.0942281 22.8314474,8.08987195 22.8344487,8.08536688 C22.8403771,8.07646842 22.8460091,8.06745826 22.8516041,8.05844811 C22.8544201,8.0539058 22.8573472,8.04940072 22.8600891,8.04478395 C22.8654247,8.03592272 22.8704639,8.02691256 22.875466,8.01793964 C22.878319,8.01283885 22.8811721,8.00784976 22.883914,8.00271173 C22.8884344,7.9941856 22.8927325,7.98562223 22.8969936,7.97702162 C22.8999578,7.9710645 22.9029591,7.96518183 22.9058121,7.95918747 C22.9094803,7.95136874 22.9129633,7.94347555 22.9164092,7.93558236 C22.9195216,7.92858273 22.922634,7.92150864 22.9255612,7.91443455 C22.9284513,7.9073977 22.9311561,7.90032361 22.933861,7.89328675 C22.9370105,7.88513293 22.9401229,7.87701635 22.94305,7.8688253 C22.9452732,7.86253308 22.9473111,7.85624087 22.9493861,7.84994865 C22.9524244,7.84086403 22.9554256,7.83174218 22.9582046,7.82250863 C22.959872,7.81696106 22.9613911,7.81133902 22.9629473,7.80575421 C22.9657263,7.79581326 22.9685052,7.7858723 22.9709507,7.77581965 C22.9722846,7.77064439 22.9733591,7.76539468 22.9745819,7.76014496 C22.9769532,7.74979445 22.9793246,7.73944394 22.9813625,7.7289445 C22.982437,7.72358309 22.9832892,7.71814721 22.9842526,7.71278579 C22.9860682,7.70254698 22.9879208,7.69223371 22.98944,7.68184596 C22.9903293,7.67562821 22.9910333,7.66941046 22.9918114,7.66319271 C22.992997,7.65358684 22.9942939,7.64405544 22.9952202,7.63441234 C22.9960354,7.62622129 22.99648,7.61799301 22.9971099,7.60976472 C22.9976657,7.60198323 22.9983697,7.59427619 22.9987402,7.58645746 C22.9995554,7.57029876 23,7.55406558 23,7.53790688 L23,7.53786964 C23,7.52524798 22.9995554,7.51262632 22.9990737,7.5 C23.009152,7.23565713 22.9139266,6.96810765 22.7131382,6.76630996" id="Fill-1" fill="#292C54" mask="url(#mask-2)"></path>
            </g>
        </g>
    </g>
</svg>