<?xml version="1.0" encoding="UTF-8"?>
<svg width="40px" height="29px" viewBox="0 0 40 29" version="1.1" xmlns="http://www.w3.org/2000/svg" xmlns:xlink="http://www.w3.org/1999/xlink">
    <title>logo.discord</title>
    <g id="Page" stroke="none" stroke-width="1" fill="none" fill-rule="evenodd">
        <g id="menu" transform="translate(-150.000000, -862.000000)" fill="#A88CFF">
            <path d="M176.507929,882 C174.523193,881.992089 172.981733,880.425763 173.000164,878.435758 C173.018117,876.507467 174.59596,874.987098 176.565444,875.000083 C178.501722,875.013067 180.008228,876.564658 180,878.537301 C179.991863,880.538394 178.509984,882.007992 176.507929,882 M174.54668,868.00006 C175.929633,868.009288 177.00563,869.117497 177,870.52662 C176.994011,871.956074 175.9356,873.005744 174.505543,873 C173.08789,872.994353 171.986928,871.875475 172.000117,870.454239 C172.012835,869.076692 173.139861,867.990688 174.54668,868.00006 M165.50732,873 C164.129099,873.001153 163.01187,871.895204 163.000099,870.517743 C162.987862,869.119518 164.114075,867.995113 165.521725,868 C166.877021,868.00463 167.995025,869.110579 168,870.451559 C168.005248,871.869105 166.9001,872.998701 165.50732,873 M163.510397,882 C161.580904,882.001604 160.016903,880.45317 160.000133,878.525104 C159.983363,876.567567 161.559745,874.993455 163.530459,875 C165.42798,875.006586 166.993078,876.55502 167,878.432458 C167.00734,880.416695 165.460422,881.998248 163.510397,882 M189.70348,881.194839 C189.103787,875.95988 187.61116,870.992113 185.362863,866.242629 C185.150911,865.795143 184.856725,865.473657 184.456406,865.201082 C181.905433,863.463535 179.115306,862.381149 176.049704,862.024364 C175.581302,861.969754 175.23916,862.08119 175.028151,862.600856 C177.723623,863.481263 180.293936,864.594832 182.550409,866.323198 C173.832697,862.367378 165.181967,862.500183 156.506866,866.578203 C156.566143,866.447614 156.573691,866.391263 156.605452,866.367677 C156.815046,866.211762 157.027469,866.059329 157.243195,865.912436 C159.37844,864.458544 161.719348,863.449289 164.163087,862.658473 C164.377241,862.588984 164.787937,862.643594 164.687779,862.247869 C164.608847,861.934931 164.268749,861.99603 164.011356,862.024364 C161.001101,862.354873 158.232829,863.362071 155.721794,865.065111 C155.32006,865.337686 154.925086,865.607412 154.68892,866.100326 C151.831811,872.060728 150.157892,878.311274 150.000815,884.95343 C149.983677,885.678714 150.23761,886.198537 150.687458,886.710288 C152.539367,888.817283 154.885306,890.056692 157.574174,890.65756 C160.2643,891.258745 160.270275,891.229936 162.022496,888.994093 C162.11951,888.870469 162.221083,888.749377 162.330047,888.636358 C162.661812,888.292236 162.630365,888.10213 162.141366,887.93735 C160.718236,887.458049 159.424982,886.722793 158.271666,885.756276 C157.833925,885.38936 157.360964,885.03305 157.059545,884.362692 C165.791408,889.240708 174.419654,889.195912 183.076201,884.489799 C181.591121,886.397191 179.563267,887.446652 177.279907,888.231453 C177.992966,889.113918 178.652879,889.923096 179.302729,890.740504 C179.490939,890.977147 179.72459,891.026375 179.998964,890.988544 C180.695356,890.892779 181.399295,890.834686 182.086881,890.695075 C185.094464,890.084551 187.677984,888.731648 189.622661,886.273092 C189.899237,885.92343 190.012446,885.562845 189.998923,885.115202 C189.958829,883.803296 189.852853,882.498989 189.70348,881.194839" id="logo.discord"></path>
        </g>
    </g>
</svg>