<svg xmlns="http://www.w3.org/2000/svg" viewBox="0 0 511.13 498.77"><g id="Layer_2" data-name="Layer 2"><g id="Layer_1-2" data-name="Layer 1"><path d="M334.43,498.77h-6c-7.2-3.11-9.36-8.73-9.35-16.31,0-26.11,0-52.23-.79-78.32a50.42,50.42,0,0,0-12.2-31.53c-1.12-1.34-2.3-2.62-3.75-4.26,1.3-.23,1.93-.36,2.57-.44,18.15-2.46,36.08-5.67,52.81-13.73,18.21-8.78,33.94-20.25,44-38.34,9.61-17.3,14.2-36,16.07-55.57,3-31.15-2-60-23.38-84.36a5.67,5.67,0,0,1-1.09-4.7c6.36-18.14,5.47-36.22.14-54.39-3.6-12.27-5.67-13.63-18.17-11.08-.32.07-.64.17-1,.26-18.07,4.64-34.45,13-50,23.06a11.68,11.68,0,0,1-10.19,1.77,235.82,235.82,0,0,0-116.95-.08c-3.86,1-6.75.38-10.24-1.5-12.26-6.6-24.65-13-37.29-18.82-7.83-3.61-16.21-6.16-25.08-5-1.48.19-3.62,1.34-4.08,2.56-7.55,20.1-10.32,40.55-3.1,61.37,1.14,3.28.65,5.36-1.58,7.91a92.11,92.11,0,0,0-20.42,40c-3.89,16.28-3.32,32.7-1.42,49.09,2.29,19.68,7.76,38.5,18.93,55.1,15.66,23.27,39.1,34.85,65.36,41.51,9.73,2.47,19.75,3.8,30.28,5.77-9.07,8.95-13.51,19.84-15.6,31.85a3.85,3.85,0,0,1-1.9,2.54c-14.68,5.95-29.8,8.74-45.17,3.45-11.81-4.06-20-12.81-26.24-23.44a58.78,58.78,0,0,0-25-23.63c-7.12-3.53-14.59-5.71-22.61-3.67-4.54,1.15-5.45,3.08-2.64,6.63,2.53,3.2,5.84,5.79,8.88,8.58,4.62,4.23,10.25,7.74,13.73,12.76a149.27,149.27,0,0,1,14.24,25.56C113,424.8,124.61,434,140.55,437.68a119.2,119.2,0,0,0,42.65,2c2.74-.36,5.46-.83,9.18-1.41,0,15.06-.2,29.5.08,43.93.15,7.77-2.26,13.56-9.77,16.59h-6c-19.65-6.8-38.87-14.72-56.29-26.11-62.74-41-102.54-97.78-116.36-171.93-1.94-10.4-2.73-21-4-31.52V239.26c.74-6.23,1.38-12.47,2.25-18.68A251.55,251.55,0,0,1,32.77,130Q72.63,60.12,145,24.94C179.44,8.07,216.09.2,254.35,0c35-.18,68.86,6,101,20,57,24.83,100.08,64.8,128.43,120.18,25.46,49.76,32.35,102.6,23.94,157.52A237.52,237.52,0,0,1,475.33,386c-19.09,31.33-43.22,58-73.36,79.2C381.15,479.83,358.38,490.46,334.43,498.77Z"/><ellipse cx="208.98" cy="285.5" rx="16.96" ry="25.56"/><ellipse cx="302.16" cy="285.5" rx="16.96" ry="25.56"/><ellipse cx="194.72" cy="214.72" rx="22.15" ry="33.38"/><ellipse cx="316.41" cy="214.72" rx="22.15" ry="33.38"/></g></g></svg>